<?xml version="1.0" standalone="no"?><!DOCTYPE svg PUBLIC "-//W3C//DTD SVG 1.1//EN" "http://www.w3.org/Graphics/SVG/1.1/DTD/svg11.dtd"><svg t="1768960253118" class="icon" viewBox="0 0 1024 1024" version="1.1" xmlns="http://www.w3.org/2000/svg" p-id="7069" xmlns:xlink="http://www.w3.org/1999/xlink" width="200" height="200"><path d="M280.8 377.9h461.1v281.8H280.8z" fill="#13227a" p-id="7070"></path><path d="M793.1 674.1H229.5c-8 0-14.4-6.4-14.4-14.4V313.9c0-8 6.5-14.4 14.4-14.4h563.6c8 0 14.4 6.4 14.4 14.4v345.9c0.1 7.9-6.4 14.3-14.4 14.3z m-549.2-28.8h534.8v-317H243.9v317z" fill="#13227a" p-id="7071"></path><path d="M857.2 725.4H165.5c-8 0-14.4-6.4-14.4-14.4v-51.2c0-8 6.5-14.4 14.4-14.4h691.7c8 0 14.4 6.4 14.4 14.4V711c0 7.9-6.4 14.4-14.4 14.4z m-677.3-28.9h662.9v-22.4H179.9v22.4z" fill="#13227a" p-id="7072"></path></svg>